<svg width="271" height="40" viewBox="0 0 271 40" fill="none" xmlns="http://www.w3.org/2000/svg">
<rect width="271" height="40" fill="black"/>
<path d="M9.46738 24.864H11.2274V14.464H9.46738V11.328H17.4674C19.6434 11.328 21.35 11.7547 22.5874 12.608C23.8247 13.44 24.4434 14.6667 24.4434 16.288C24.4434 17.4613 24.134 18.432 23.5154 19.2C22.918 19.968 22.1394 20.5333 21.1794 20.896L23.4514 24.864H25.4354V28H20.6674L17.2114 21.728H15.3554V24.864H17.0834V28H9.46738V24.864ZM16.6034 18.816C17.9474 18.816 18.8434 18.624 19.2914 18.24C19.7607 17.8347 19.9954 17.2587 19.9954 16.512C19.9954 15.7227 19.7607 15.1893 19.2914 14.912C18.822 14.6133 17.958 14.464 16.6994 14.464H15.3554V18.816H16.6034ZM39.8336 11.328H47.0976V14.464H45.5936V21.088C45.5936 22.8587 45.0283 24.5013 43.8976 26.016C42.767 27.5093 40.783 28.256 37.9456 28.256C35.279 28.256 33.3803 27.5627 32.2496 26.176C31.119 24.768 30.5536 23.168 30.5536 21.376V14.464H29.0816V11.328H36.6016V14.464H34.6816V21.248C34.6816 22.3147 34.927 23.2107 35.4176 23.936C35.9296 24.6613 36.847 25.024 38.1696 25.024C39.471 25.024 40.3883 24.6613 40.9216 23.936C41.4763 23.1893 41.7536 22.24 41.7536 21.088V14.464H39.8336V11.328ZM51.7749 24.864H53.5349V14.464H51.7749V11.328H59.7749C61.9509 11.328 63.6575 11.7547 64.8949 12.608C66.1322 13.44 66.7509 14.6667 66.7509 16.288C66.7509 17.4613 66.4415 18.432 65.8229 19.2C65.2255 19.968 64.4469 20.5333 63.4869 20.896L65.7589 24.864H67.7429V28H62.9749L59.5189 21.728H57.6629V24.864H59.3909V28H51.7749V24.864ZM58.9109 18.816C60.2549 18.816 61.1509 18.624 61.5989 18.24C62.0682 17.8347 62.3029 17.2587 62.3029 16.512C62.3029 15.7227 62.0682 15.1893 61.5989 14.912C61.1295 14.6133 60.2655 14.464 59.0069 14.464H57.6629V18.816H58.9109ZM71.2544 24.864H72.7584L77.6544 14.464H75.2864V11.328H81.6224L87.9584 24.864H89.5584V28H82.3264V24.864H83.5424L82.9984 23.424H77.4624L76.9184 24.864H78.3584V28H71.2544V24.864ZM80.1824 16.544L78.4864 20.8H81.9744L80.3424 16.544H80.1824ZM106.705 28H93.4574V24.864H95.2174V14.464H93.4574V11.328H101.649V14.464H99.3454V24.864H103.313L103.729 21.728L107.345 22.048L106.705 28ZM133.433 16.448L129.817 16.768L129.465 14.464H125.465V18.816H132.601V21.952H125.465V24.864H128.249V28H119.577V24.864H121.337V14.464H119.577V11.328H132.793L133.433 16.448ZM137.887 24.864H139.647V14.464H137.887V11.328H145.887C148.063 11.328 149.77 11.7547 151.007 12.608C152.245 13.44 152.863 14.6667 152.863 16.288C152.863 17.4613 152.554 18.432 151.935 19.2C151.338 19.968 150.559 20.5333 149.599 20.896L151.871 24.864H153.855V28H149.087L145.631 21.728H143.775V24.864H145.503V28H137.887V24.864ZM145.023 18.816C146.367 18.816 147.263 18.624 147.711 18.24C148.181 17.8347 148.415 17.2587 148.415 16.512C148.415 15.7227 148.181 15.1893 147.711 14.912C147.242 14.6133 146.378 14.464 145.119 14.464H143.775V18.816H145.023ZM158.775 18.752V13.568H163.063V18.752H158.775ZM158.775 28V22.816H163.063V28H158.775ZM183.608 26.144C183.011 26.7413 182.04 27.2427 180.696 27.648C179.374 28.0533 178.062 28.256 176.76 28.256C174.243 28.256 172.174 27.488 170.552 25.952C168.952 24.3947 168.152 22.3467 168.152 19.808C168.152 17.3547 168.931 15.2853 170.488 13.6C172.046 11.9147 174.19 11.072 176.92 11.072C178.328 11.072 179.64 11.2853 180.856 11.712C182.072 12.1387 182.947 12.5973 183.48 13.088L183.896 17.024L180.44 17.28L180.056 15.04C179.331 14.5493 178.403 14.304 177.272 14.304C175.886 14.304 174.755 14.752 173.88 15.648C173.027 16.544 172.6 17.8987 172.6 19.712C172.6 21.632 173.059 22.9973 173.976 23.808C174.894 24.6187 175.992 25.024 177.272 25.024C177.912 25.024 178.456 24.96 178.904 24.832C179.374 24.704 179.768 24.544 180.088 24.352L180.472 21.888L183.928 22.144L183.608 26.144ZM205.422 17.344L201.806 17.664L201.39 14.464H198.798V24.864H201.582V28H192.078V24.864H194.67V14.464H192.11L191.694 17.664L188.046 17.344L188.686 11.328H204.782L205.422 17.344ZM210.267 18.752V13.568H214.555V18.752H210.267ZM210.267 28V22.816H214.555V28H210.267ZM228.669 11.072C231.528 11.072 233.725 11.9147 235.261 13.6C236.818 15.264 237.597 17.2693 237.597 19.616C237.597 21.984 236.808 24.0213 235.229 25.728C233.672 27.4133 231.442 28.256 228.541 28.256C225.618 28.256 223.4 27.4133 221.885 25.728C220.392 24.0213 219.645 22.0053 219.645 19.68C219.645 17.2267 220.445 15.1787 222.045 13.536C223.666 11.8933 225.874 11.072 228.669 11.072ZM228.733 25.024C230.226 25.024 231.325 24.544 232.029 23.584C232.754 22.6027 233.117 21.3333 233.117 19.776C233.117 16.128 231.613 14.304 228.605 14.304C227.112 14.304 225.992 14.8053 225.245 15.808C224.498 16.7893 224.125 18.0587 224.125 19.616C224.125 21.0667 224.477 22.336 225.181 23.424C225.906 24.4907 227.09 25.024 228.733 25.024ZM252.783 11.328H260.879V14.464H259.119V28L256.847 28.032L247.727 17.856H247.599V24.864H249.903V28H241.935V24.864H243.759V14.464H241.647V11.328H246.703L255.151 20.736H255.279V14.464H252.783V11.328Z" fill="white"/>
</svg>
